<svg width="136" height="136" viewBox="0 0 136 136" fill="none" xmlns="http://www.w3.org/2000/svg">
<g clip-path="url(#clip0_1607_146)">
<path d="M60.5992 86.1704C60.0447 85.5417 59.3267 85.0906 58.5306 84.8708C57.7345 84.6509 56.8939 84.6715 56.1089 84.9302L48.4217 87.4545C48.0012 87.5932 47.5572 87.6398 47.1182 87.5911C46.6792 87.5424 46.255 87.3996 45.8727 87.1718C45.4904 86.944 45.1586 86.6363 44.8985 86.2684C44.6385 85.9005 44.4559 85.4805 44.3626 85.0355L42.6379 76.91C42.4605 76.08 42.0564 75.3197 41.4733 74.719C40.8902 74.1183 40.1525 73.7022 39.3475 73.52L38.9844 73.4381L11.3333 115.203L33.8558 113.653L40.1247 136L68.3743 93.3862C67.9333 93.389 67.4966 93.2952 67.0932 93.1112C66.6898 92.9272 66.3289 92.6571 66.0342 92.3186L60.5992 86.1704Z" fill="#A78BFA"/>
<path d="M60.5993 86.1703C60.1961 85.7115 59.7046 85.3445 59.1561 85.0927C58.6076 84.8409 58.0142 84.7098 57.4138 84.7078C56.9708 84.7076 56.5306 84.7786 56.1089 84.9184L48.4218 87.4426C48.0011 87.5814 47.5569 87.628 47.1177 87.5794C46.6786 87.5307 46.2541 87.3879 45.8716 87.1601C45.4891 86.9324 45.157 86.6246 44.8967 86.2567C44.6363 85.8888 44.4534 85.4688 44.3598 85.0237L43.5088 80.9931L20.7224 114.557L33.853 113.653L37.5094 126.681L63.0983 88.9987L60.5993 86.1703ZM75.395 86.1703C75.9495 85.5416 76.6675 85.0905 77.4636 84.8706C78.2597 84.6508 79.1003 84.6714 79.8853 84.9301L87.5724 87.4543C87.993 87.5931 88.437 87.6397 88.876 87.591C89.3149 87.5423 89.7392 87.3995 90.1215 87.1717C90.5038 86.9439 90.8356 86.6362 91.0957 86.2682C91.3557 85.9003 91.5383 85.4804 91.6316 85.0354L93.3563 76.9099C93.5338 76.0803 93.9381 75.3205 94.5212 74.7202C95.1043 74.12 95.8419 73.7045 96.6467 73.5228L97.0098 73.4409L124.667 115.203L102.144 113.653L95.8752 136L67.6198 93.3861C68.0609 93.3889 68.4976 93.2951 68.901 93.1111C69.3043 92.9271 69.6653 92.6569 69.96 92.3185L75.395 86.1703Z" fill="#A78BFA"/>
<path d="M75.395 86.1703C75.9496 85.5417 76.6676 85.0906 77.4637 84.8707C78.2598 84.6508 79.1003 84.6715 79.8854 84.9302L87.5725 87.4544C87.993 87.5932 88.4371 87.6397 88.876 87.5911C89.315 87.5424 89.7393 87.3996 90.1216 87.1717C90.5038 86.9439 90.8357 86.6362 91.0958 86.2683C91.3558 85.9004 91.5384 85.4804 91.6317 85.0355L92.4827 81.0049L115.266 114.557L102.133 113.653L98.4792 126.681L72.896 88.9988L75.395 86.1703Z" fill="#A78BFA"/>
<path d="M79.1673 89.7714L86.5424 92.1932C87.6025 92.5417 88.7214 92.6581 89.8275 92.5349C90.9337 92.4117 92.0027 92.0516 92.9662 91.4778C93.9296 90.904 94.7662 90.1291 95.4224 89.2026C96.0786 88.2761 96.5399 87.2186 96.7769 86.0977L98.4278 78.3056L99.9936 77.9546L97.0066 73.4414L96.6435 73.5233C95.8397 73.706 95.1034 74.1219 94.5213 74.7221C93.9393 75.3222 93.5359 76.0815 93.3588 76.9104L91.6341 85.0359C91.5408 85.4809 91.3582 85.9008 91.0982 86.2687C90.8381 86.6366 90.5063 86.9444 90.124 87.1722C89.7417 87.4 89.3174 87.5428 88.8785 87.5915C88.4395 87.6402 87.9955 87.5936 87.575 87.4548L79.8878 84.9306C79.1028 84.6719 78.2622 84.6513 77.4661 84.8711C76.67 85.091 75.952 85.5421 75.3974 86.1708L69.9625 92.3132C69.7296 92.6213 69.4317 92.8705 69.0913 93.042C68.7509 93.2134 68.377 93.3025 67.9982 93.3025C67.6194 93.3025 67.2455 93.2134 66.9051 93.042C66.5647 92.8705 66.2667 92.6213 66.0338 92.3132L60.6018 86.1708C60.1986 85.712 59.7071 85.345 59.1586 85.0932C58.6101 84.8413 58.0167 84.7103 57.4163 84.7083C56.9733 84.708 56.5331 84.7791 56.1114 84.9189L48.4243 87.4431C48.0036 87.5819 47.5594 87.6285 47.1202 87.5798C46.6811 87.5312 46.2566 87.3884 45.8741 87.1606C45.4916 86.9328 45.1595 86.6251 44.8992 86.2572C44.6388 85.8893 44.4559 85.4693 44.3623 85.0242L42.6404 76.8987C42.4604 76.071 42.0548 75.3136 41.4714 74.7156C40.8879 74.1176 40.1509 73.7039 39.3472 73.5233L38.9869 73.4414L36.0142 77.94L37.6707 78.3114L39.3216 86.1035C39.5592 87.2242 40.0211 88.2815 40.6778 89.2075C41.3344 90.1336 42.1714 90.908 43.1351 91.4813C44.0988 92.0545 45.1679 92.414 46.2741 92.5366C47.3803 92.6592 48.4991 92.5422 49.5589 92.1932L56.9142 89.7509L62.142 95.6681C63.0404 96.666 64.1653 97.4178 65.4155 97.8559L67.9968 93.957L70.6008 97.8823C71.8833 97.4495 73.038 96.6875 73.9565 95.6681L79.1673 89.7714Z" fill="#7C3AED"/>
<path d="M60.5998 86.1704C60.1966 85.7117 59.7051 85.3446 59.1566 85.0928C58.6081 84.841 58.0147 84.7099 57.4143 84.708C56.9713 84.7077 56.5311 84.7788 56.1094 84.9186L48.4223 87.4428C48.0016 87.5816 47.5574 87.6282 47.1182 87.5795C46.679 87.5309 46.2546 87.3881 45.8721 87.1603C45.4896 86.9325 45.1575 86.6248 44.8972 86.2569C44.6368 85.8889 44.4539 85.469 44.3603 85.0239L43.5093 80.9933L20.7229 114.557L33.8535 113.653L37.5099 126.681L63.0988 88.9989L60.5998 86.1704ZM92.4888 81.005L91.6378 85.0356C91.5445 85.4806 91.3619 85.9005 91.1018 86.2684C90.8418 86.6363 90.5099 86.944 90.1277 87.1718C89.7454 87.3997 89.3211 87.5425 88.8821 87.5912C88.4431 87.6398 87.9991 87.5933 87.5786 87.4545L79.8914 84.9303C79.1064 84.6716 78.2658 84.6509 77.4698 84.8708C76.6737 85.0907 75.9556 85.5418 75.4011 86.1704L72.9021 88.9989L98.491 126.681L102.145 113.653L115.278 114.557L92.4888 81.005Z" fill="#8B5CF6"/>
<path d="M63.0986 88.9989L60.5996 86.1704C60.1964 85.7117 59.7049 85.3446 59.1564 85.0928C58.6079 84.841 58.0145 84.7099 57.4141 84.708C56.9711 84.7077 56.5309 84.7788 56.1092 84.9186L48.4221 87.4428C48.0014 87.5816 47.5572 87.6282 47.118 87.5795C46.6788 87.5309 46.2544 87.3881 45.8719 87.1603C45.4894 86.9325 45.1573 86.6248 44.897 86.2569C44.6366 85.8889 44.4537 85.469 44.3601 85.0239L43.5091 80.9933L39.5378 86.8432C40.1807 88.9216 41.5969 90.6522 43.4757 91.6552C45.3546 92.6581 47.5426 92.8515 49.5595 92.1929L56.9148 89.7506L60.123 93.3834L63.1014 88.9959L63.0986 88.9989ZM86.5402 92.1929C88.5383 92.8492 90.7065 92.6693 92.577 91.692C94.4476 90.7147 95.8707 89.0184 96.5392 86.9689L92.4886 81.005L91.6376 85.0356C91.5443 85.4805 91.3617 85.9005 91.1016 86.2684C90.8416 86.6363 90.5097 86.944 90.1275 87.1718C89.7452 87.3997 89.3209 87.5425 88.8819 87.5912C88.4429 87.6398 87.9989 87.5933 87.5784 87.4545L79.8913 84.9303C79.1062 84.6716 78.2656 84.6509 77.4696 84.8708C76.6735 85.0907 75.9554 85.5418 75.4009 86.1704L72.9019 88.9989L75.9172 93.4419L79.1679 89.7652L86.5402 92.1929Z" fill="#A78BFA"/>
<path d="M97.1941 19.8707L105.077 21.6462C105.585 21.7612 106.064 21.9843 106.484 22.3011C106.904 22.6179 107.255 23.0216 107.515 23.4862C107.775 23.9508 107.938 24.4662 107.994 24.9995C108.05 25.5328 107.998 26.0723 107.84 26.5835L105.392 34.5101C105.175 35.2127 105.158 35.9649 105.343 36.6772C105.528 37.3895 105.907 38.0322 106.436 38.5289L112.393 44.1302C112.777 44.4915 113.085 44.9317 113.295 45.4225C113.505 45.9133 113.614 46.444 113.614 46.9806C113.614 47.5172 113.505 48.0479 113.295 48.5387C113.085 49.0295 112.777 49.4697 112.393 49.8309L106.436 55.4351C105.907 55.9317 105.527 56.5744 105.342 57.2868C105.157 57.9992 105.175 58.7514 105.392 59.454L107.84 67.3806C107.998 67.8916 108.05 68.4309 107.994 68.964C107.938 69.4972 107.775 70.0124 107.515 70.4768C107.255 70.9411 106.904 71.3445 106.484 71.661C106.064 71.9775 105.585 72.2003 105.077 72.315L97.1941 74.0934C96.4953 74.251 95.855 74.6119 95.3492 75.1335C94.8434 75.6551 94.4933 76.3153 94.3405 77.0359L92.6159 85.1614C92.5053 85.6857 92.2898 86.1804 91.9831 86.6138C91.6763 87.0472 91.2852 87.4098 90.8347 87.6783C90.3842 87.9468 89.8842 88.1152 89.3669 88.1729C88.8496 88.2306 88.3263 88.1762 87.8305 88.0132L80.1434 85.489C79.462 85.2641 78.7323 85.246 78.0413 85.4369C77.3503 85.6277 76.727 86.0194 76.2459 86.5654L70.811 92.7077C70.4608 93.1044 70.0342 93.4213 69.5585 93.6382C69.0827 93.855 68.5683 93.967 68.0481 93.967C67.5279 93.967 67.0135 93.855 66.5378 93.6382C66.062 93.4213 65.6354 93.1044 65.2853 92.7077L59.8504 86.5654C59.3692 86.0194 58.746 85.6277 58.0549 85.4369C57.3639 85.246 56.6342 85.2641 55.9529 85.489L48.2657 88.0132C47.7699 88.1762 47.2466 88.2306 46.7293 88.1729C46.212 88.1152 45.7121 87.9468 45.2615 87.6783C44.811 87.4098 44.4199 87.0472 44.1132 86.6138C43.8064 86.1804 43.5909 85.6857 43.4804 85.1614L41.7557 77.0359C41.6029 76.3153 41.2528 75.6551 40.747 75.1335C40.2412 74.6119 39.6009 74.251 38.9021 74.0934L31.0192 72.315C30.5112 72.2003 30.032 71.9775 29.6122 71.661C29.1925 71.3445 28.8414 70.9411 28.5813 70.4768C28.3213 70.0124 28.1581 69.4972 28.1022 68.964C28.0462 68.4309 28.0987 67.8916 28.2564 67.3806L30.7043 59.454C30.9217 58.7514 30.9389 57.9992 30.7538 57.2868C30.5688 56.5744 30.1893 55.9317 29.6605 55.4351L23.7036 49.8309C23.3189 49.4697 23.0115 49.0295 22.8011 48.5387C22.5908 48.0479 22.4822 47.5172 22.4822 46.9806C22.4822 46.444 22.5908 45.9133 22.8011 45.4225C23.0115 44.9317 23.3189 44.4915 23.7036 44.1302L29.6605 38.5289C30.189 38.0322 30.5683 37.3895 30.7533 36.6772C30.9383 35.9649 30.9213 35.2127 30.7043 34.5101L28.2564 26.5835C28.0987 26.0723 28.0462 25.5328 28.1021 24.9995C28.1581 24.4662 28.3212 23.9508 28.5812 23.4862C28.8412 23.0216 29.1923 22.6179 29.6121 22.3011C30.0319 21.9843 30.5111 21.7612 31.0192 21.6462L38.9021 19.8707C39.6009 19.7131 40.2412 19.3521 40.747 18.8306C41.2528 18.309 41.6029 17.6488 41.7557 16.9282L43.4804 8.79979C43.5912 8.27575 43.807 7.78136 44.1139 7.34827C44.4207 6.91519 44.8119 6.55296 45.2624 6.28477C45.7129 6.01659 46.2127 5.84836 46.7299 5.79087C47.247 5.73337 47.7701 5.78788 48.2657 5.95089L55.9529 8.47512C56.6343 8.69851 57.3636 8.71586 58.0544 8.52509C58.7451 8.33433 59.3684 7.94345 59.8504 7.39874L65.2853 1.25635C65.6359 0.86047 66.0626 0.54428 66.5383 0.327944C67.014 0.111609 67.5282 -0.00012207 68.0481 -0.00012207C68.568 -0.00012207 69.0822 0.111609 69.5579 0.327944C70.0336 0.54428 70.4604 0.86047 70.811 1.25635L76.2459 7.39874C76.7278 7.94345 77.3511 8.33433 78.0418 8.52509C78.7326 8.71586 79.4619 8.69851 80.1434 8.47512L87.8305 5.95089C88.3261 5.78788 88.8492 5.73337 89.3664 5.79087C89.8835 5.84836 90.3833 6.01659 90.8338 6.28477C91.2843 6.55296 91.6755 6.91519 91.9824 7.34827C92.2892 7.78136 92.505 8.27575 92.6159 8.79979L94.3405 16.9282C94.4933 17.6488 94.8434 18.309 95.3492 18.8306C95.855 19.3521 96.4953 19.7131 97.1941 19.8707Z" fill="#6D28D9"/>
<path d="M97.5777 46.9938C97.5716 52.636 96.0452 58.1655 93.1689 62.9653C90.2927 67.7651 86.1796 71.6464 81.2887 74.1762C76.3978 76.706 70.9213 77.7848 65.4705 77.2921C60.0196 76.7995 54.8087 74.7548 50.4191 71.3863C46.0295 68.0177 42.634 63.4578 40.6113 58.2152C38.5887 52.9727 38.0185 47.2537 38.9643 41.6964C39.9101 36.1392 42.3348 30.9622 45.9678 26.7431C49.6009 22.524 54.2993 19.4288 59.5389 17.8028C62.2982 16.942 65.166 16.5083 68.0487 16.5158C71.9288 16.5162 75.7708 17.305 79.3551 18.8372C82.9394 20.3693 86.1957 22.6148 88.9381 25.4453C91.6804 28.2757 93.8549 31.6356 95.3373 35.3331C96.8198 39.0305 97.581 42.9929 97.5777 46.9938Z" fill="#A78BFA"/>
<path d="M97.577 46.9938C97.5798 52.1513 96.3109 57.2249 93.8894 61.7377C91.4679 66.2505 87.9735 70.0544 83.7344 72.7918C80.9752 73.6526 78.1074 74.0863 75.2246 74.0788C68.8109 74.0826 62.5703 71.9337 57.4457 67.9567C52.3212 63.9798 48.5912 58.391 46.8195 52.0348C45.0478 45.6787 45.3306 38.9006 47.6252 32.7248C49.9197 26.5491 54.1014 21.3112 59.5383 17.8028C62.2975 16.942 65.1653 16.5083 68.0481 16.5158C71.9281 16.5162 75.7701 17.305 79.3544 18.8372C82.9387 20.3693 86.1951 22.6148 88.9374 25.4453C91.6797 28.2757 93.8542 31.6356 95.3366 35.333C96.8191 39.0305 97.5804 42.9929 97.577 46.9938Z" fill="#8B5CF6"/>
<path d="M70.1982 65.7807C69.6339 65.7807 69.0928 65.5496 68.6939 65.1382C68.2949 64.7268 68.0707 64.1688 68.0707 63.587V36.385L62.5848 40.2488C62.3542 40.4178 62.0933 40.5377 61.8173 40.6015C61.5413 40.6653 61.2557 40.6717 60.9772 40.6203C60.6988 40.5689 60.4331 40.4608 60.1956 40.3022C59.9582 40.1437 59.7538 39.9379 59.5945 39.6969C59.4351 39.456 59.3239 39.1846 59.2674 38.8988C59.211 38.613 59.2103 38.3185 59.2656 38.0324C59.3208 37.7464 59.4309 37.4745 59.5892 37.2328C59.7476 36.9911 59.9511 36.7844 60.1878 36.6248L68.9983 30.4181C69.3181 30.1929 69.6914 30.0619 70.0781 30.0394C70.4647 30.0168 70.85 30.1035 71.1923 30.2901C71.5347 30.4767 71.8212 30.7562 72.0209 31.0983C72.2206 31.4404 72.326 31.8322 72.3256 32.2316V63.587C72.3256 64.1688 72.1015 64.7268 71.7025 65.1382C71.3035 65.5496 70.7624 65.7807 70.1982 65.7807Z" fill="#F5F3FF"/>
</g>
<defs>
<clipPath id="clip0_1607_146">
<rect width="136" height="136" fill="white"/>
</clipPath>
</defs>
</svg>
