<svg width="109" height="110" viewBox="0 0 109 110" fill="none" xmlns="http://www.w3.org/2000/svg">
<g clip-path="url(#clip0_2857_318)">
<path d="M48.4797 69.5363C48.0361 69.0334 47.4616 68.6725 46.8248 68.4966C46.1879 68.3207 45.5154 68.3372 44.8874 68.5442L38.7377 70.5635C38.4013 70.6746 38.0461 70.7118 37.6949 70.6729C37.3437 70.6339 37.0043 70.5197 36.6985 70.3374C36.3926 70.1552 36.1272 69.909 35.9191 69.6147C35.7111 69.3203 35.565 68.9844 35.4904 68.6284L34.1106 62.128C33.9687 61.464 33.6454 60.8558 33.1789 60.3752C32.7125 59.8946 32.1223 59.5618 31.4783 59.416L31.1878 59.3505L9.06689 92.7627L27.0849 91.5225L32.1001 109.4L54.6998 75.309C54.3469 75.3112 53.9976 75.2362 53.6749 75.0889C53.3522 74.9417 53.0634 74.7256 52.8276 74.4549L48.4797 69.5363Z" fill="#A78BFA"/>
<path d="M48.4796 69.5363C48.1571 69.1693 47.7639 68.8756 47.3251 68.6742C46.8863 68.4727 46.4115 68.3679 45.9312 68.3663C45.5769 68.3661 45.2247 68.4229 44.8873 68.5348L38.7376 70.5542C38.4011 70.6652 38.0457 70.7025 37.6944 70.6635C37.343 70.6246 37.0035 70.5104 36.6975 70.3282C36.3915 70.1459 36.1258 69.8998 35.9175 69.6054C35.7092 69.3111 35.5629 68.9751 35.488 68.619L34.8072 65.3946L16.5781 92.2456L27.0826 91.5225L30.0077 101.945L50.4788 71.799L48.4796 69.5363ZM60.3162 69.5363C60.7598 69.0333 61.3342 68.6725 61.9711 68.4966C62.6079 68.3207 63.2804 68.3372 63.9084 68.5441L70.0582 70.5635C70.3946 70.6746 70.7498 70.7118 71.101 70.6729C71.4522 70.6339 71.7916 70.5196 72.0974 70.3374C72.4032 70.1552 72.6687 69.909 72.8767 69.6146C73.0848 69.3203 73.2308 68.9844 73.3055 68.6284L74.6852 62.128C74.8273 61.4643 75.1507 60.8564 75.6171 60.3762C76.0836 59.8961 76.6737 59.5636 77.3176 59.4183L77.608 59.3528L99.7335 92.7627L81.7154 91.5225L76.7003 109.4L54.0961 75.309C54.4489 75.3111 54.7983 75.2361 55.121 75.0889C55.4437 74.9417 55.7324 74.7256 55.9682 74.4549L60.3162 69.5363Z" fill="#A78BFA"/>
<path d="M60.3161 69.5362C60.7597 69.0332 61.3342 68.6723 61.971 68.4965C62.6079 68.3206 63.2804 68.3371 63.9084 68.544L70.0581 70.5634C70.3945 70.6744 70.7497 70.7117 71.1009 70.6727C71.4521 70.6338 71.7915 70.5195 72.0974 70.3373C72.4032 70.1551 72.6686 69.9089 72.8767 69.6145C73.0848 69.3202 73.2308 68.9843 73.3055 68.6283L73.9863 65.4038L92.2131 92.2455L81.7063 91.5224L78.7835 101.945L58.3169 71.7989L60.3161 69.5362Z" fill="#A78BFA"/>
<path d="M63.334 72.417L69.2341 74.3545C70.0822 74.6333 70.9773 74.7264 71.8622 74.6278C72.7472 74.5292 73.6024 74.2412 74.3731 73.7822C75.1439 73.3231 75.8131 72.7032 76.3381 71.962C76.8631 71.2208 77.2321 70.3748 77.4217 69.478L78.7424 63.2444L79.995 62.9636L77.6055 59.353L77.315 59.4185C76.672 59.5647 76.0829 59.8974 75.6173 60.3776C75.1516 60.8577 74.8289 61.4651 74.6872 62.1282L73.3075 68.6286C73.2328 68.9846 73.0868 69.3206 72.8787 69.6149C72.6707 69.9092 72.4052 70.1554 72.0994 70.3377C71.7936 70.5199 71.4542 70.6342 71.103 70.6731C70.7518 70.712 70.3966 70.6748 70.0602 70.5638L63.9104 68.5444C63.2824 68.3374 62.6099 68.3209 61.9731 68.4968C61.3362 68.6727 60.7618 69.0336 60.3182 69.5365L55.9702 74.4504C55.7839 74.6969 55.5455 74.8963 55.2732 75.0335C55.0009 75.1706 54.7018 75.2419 54.3987 75.2419C54.0957 75.2419 53.7966 75.1706 53.5243 75.0335C53.252 74.8963 53.0136 74.6969 52.8273 74.4504L48.4816 69.5365C48.1591 69.1695 47.7659 68.8759 47.3271 68.6744C46.8883 68.473 46.4135 68.3681 45.9332 68.3665C45.5789 68.3663 45.2267 68.4232 44.8893 68.535L38.7396 70.5544C38.4031 70.6654 38.0477 70.7027 37.6964 70.6638C37.345 70.6249 37.0055 70.5106 36.6995 70.3284C36.3935 70.1462 36.1278 69.9 35.9195 69.6057C35.7112 69.3113 35.5649 68.9753 35.49 68.6193L34.1126 62.1189C33.9685 61.4567 33.644 60.8508 33.1773 60.3724C32.7105 59.894 32.1209 59.5631 31.4779 59.4185L31.1897 59.353L28.8115 62.9519L30.1368 63.2491L31.4575 69.4827C31.6475 70.3793 32.0171 71.2251 32.5424 71.9659C33.0677 72.7068 33.7373 73.3263 34.5083 73.7849C35.2792 74.2435 36.1345 74.5311 37.0195 74.6292C37.9044 74.7272 38.7995 74.6337 39.6473 74.3545L45.5316 72.4006L49.7138 77.1344C50.4325 77.9327 51.3324 78.5342 52.3326 78.8847L54.3976 75.7655L56.4808 78.9057C57.5068 78.5595 58.4306 77.9499 59.1654 77.1344L63.334 72.417Z" fill="#7C3AED"/>
<path d="M48.4801 69.5363C48.1576 69.1692 47.7644 68.8756 47.3256 68.6742C46.8868 68.4727 46.412 68.3679 45.9317 68.3663C45.5774 68.3661 45.2252 68.4229 44.8878 68.5348L38.7381 70.5541C38.4016 70.6652 38.0462 70.7024 37.6949 70.6635C37.3435 70.6246 37.004 70.5104 36.698 70.3281C36.392 70.1459 36.1263 69.8997 35.918 69.6054C35.7097 69.3111 35.5634 68.9751 35.4885 68.619L34.8077 65.3945L16.5786 92.2455L27.0831 91.5225L30.0082 101.945L50.4793 71.799L48.4801 69.5363ZM73.9913 65.4039L73.3105 68.6284C73.2359 68.9843 73.0898 69.3203 72.8818 69.6146C72.6737 69.9089 72.4082 70.1551 72.1024 70.3374C71.7966 70.5196 71.4572 70.6339 71.106 70.6728C70.7548 70.7118 70.3996 70.6745 70.0632 70.5635L63.9135 68.5441C63.2854 68.3372 62.613 68.3206 61.9761 68.4965C61.3392 68.6724 60.7648 69.0333 60.3212 69.5363L58.322 71.799L78.7931 101.945L81.7159 91.5225L92.2227 92.2455L73.9913 65.4039Z" fill="#8B5CF6"/>
<path d="M50.4795 71.799L48.4802 69.5363C48.1577 69.1692 47.7645 68.8756 47.3257 68.6742C46.8869 68.4727 46.4122 68.3679 45.9318 68.3663C45.5775 68.3661 45.2253 68.4229 44.888 68.5348L38.7382 70.5541C38.4017 70.6652 38.0463 70.7024 37.695 70.6635C37.3437 70.6246 37.0041 70.5104 36.6981 70.3281C36.3921 70.1459 36.1264 69.8997 35.9182 69.6054C35.7099 69.3111 35.5636 68.9751 35.4886 68.619L34.8078 65.3945L31.6309 70.0744C32.1451 71.7372 33.2781 73.1217 34.7812 73.924C36.2843 74.7264 38.0346 74.8811 39.6482 74.3542L45.5324 72.4004L48.099 75.3066L50.4817 71.7967L50.4795 71.799ZM69.2328 74.3542C70.8312 74.8793 72.5658 74.7353 74.0622 73.9535C75.5587 73.1717 76.6971 71.8146 77.232 70.1751L73.9914 65.4039L73.3107 68.6284C73.236 68.9843 73.09 69.3203 72.8819 69.6146C72.6738 69.9089 72.4084 70.1551 72.1026 70.3374C71.7967 70.5196 71.4573 70.6339 71.1061 70.6728C70.7549 70.7118 70.3997 70.6745 70.0633 70.5635L63.9136 68.5441C63.2856 68.3372 62.6131 68.3206 61.9762 68.4965C61.3394 68.6724 60.7649 69.0333 60.3213 69.5363L58.3221 71.799L60.7343 75.3534L63.3349 72.4121L69.2328 74.3542Z" fill="#A78BFA"/>
<path d="M77.7554 16.4965L84.0617 17.9169C84.4682 18.0089 84.8516 18.1874 85.1874 18.4409C85.5232 18.6943 85.8041 19.0172 86.0121 19.3889C86.2201 19.7606 86.3506 20.1729 86.3954 20.5996C86.4401 21.0262 86.3981 21.4578 86.272 21.8667L84.3136 28.208C84.14 28.7701 84.1264 29.3718 84.2744 29.9417C84.4225 30.5116 84.7259 31.0257 85.1487 31.4231L89.9142 35.9041C90.222 36.1932 90.4679 36.5453 90.6362 36.9379C90.8044 37.3306 90.8913 37.7551 90.8913 38.1844C90.8913 38.6137 90.8044 39.0383 90.6362 39.4309C90.4679 39.8236 90.222 40.1757 89.9142 40.4647L85.1487 44.9481C84.7256 45.3453 84.4221 45.8594 84.274 46.4294C84.126 46.9993 84.1397 47.6011 84.3136 48.1632L86.272 54.5045C86.3981 54.9133 86.4401 55.3447 86.3954 55.7712C86.3506 56.1977 86.22 56.6099 86.012 56.9814C85.804 57.3529 85.5231 57.6755 85.1873 57.9288C84.8515 58.182 84.4681 58.3602 84.0617 58.452L77.7554 59.8747C77.1964 60.0007 76.6841 60.2895 76.2795 60.7068C75.8748 61.124 75.5948 61.6522 75.4725 62.2287L74.0928 68.7291C74.0044 69.1485 73.8319 69.5443 73.5866 69.891C73.3412 70.2377 73.0283 70.5278 72.6679 70.7426C72.3074 70.9574 71.9075 71.0921 71.4936 71.1383C71.0798 71.1844 70.6611 71.1409 70.2645 71.0105L64.1148 68.9911C63.5697 68.8113 62.986 68.7968 62.4331 68.9495C61.8803 69.1021 61.3817 69.4155 60.9968 69.8522L56.6489 74.7662C56.3688 75.0835 56.0275 75.337 55.6469 75.5105C55.2663 75.684 54.8547 75.7736 54.4386 75.7736C54.0225 75.7736 53.6109 75.684 53.2303 75.5105C52.8497 75.337 52.5084 75.0835 52.2283 74.7662L47.8804 69.8522C47.4955 69.4155 46.9969 69.1021 46.4441 68.9495C45.8912 68.7968 45.3075 68.8113 44.7624 68.9911L38.6127 71.0105C38.2161 71.1409 37.7974 71.1844 37.3836 71.1383C36.9697 71.0921 36.5697 70.9574 36.2093 70.7426C35.8489 70.5278 35.536 70.2377 35.2906 69.891C35.0452 69.5443 34.8728 69.1485 34.7844 68.7291L33.4047 62.2287C33.2824 61.6522 33.0023 61.124 32.5977 60.7068C32.1931 60.2895 31.6808 60.0007 31.1218 59.8747L24.8155 58.452C24.4091 58.3602 24.0257 58.182 23.6899 57.9288C23.3541 57.6755 23.0732 57.3529 22.8652 56.9814C22.6572 56.6099 22.5266 56.1977 22.4818 55.7712C22.4371 55.3447 22.4791 54.9133 22.6052 54.5045L24.5636 48.1632C24.7375 47.6011 24.7512 46.9993 24.6032 46.4294C24.4551 45.8594 24.1515 45.3453 23.7285 44.9481L18.963 40.4647C18.6552 40.1757 18.4093 39.8236 18.241 39.4309C18.0728 39.0383 17.9858 38.6137 17.9858 38.1844C17.9858 37.7551 18.0728 37.3306 18.241 36.9379C18.4093 36.5453 18.6552 36.1932 18.963 35.9041L23.7285 31.4231C24.1513 31.0257 24.4547 30.5116 24.6028 29.9417C24.7508 29.3718 24.7372 28.7701 24.5636 28.208L22.6052 21.8667C22.4791 21.4578 22.437 21.0262 22.4818 20.5996C22.5265 20.1729 22.6571 19.7606 22.8651 19.3889C23.0731 19.0172 23.3539 18.6943 23.6898 18.4409C24.0256 18.1874 24.409 18.0089 24.8155 17.9169L31.1218 16.4965C31.6808 16.3705 32.1931 16.0817 32.5977 15.6644C33.0023 15.2472 33.2824 14.719 33.4047 14.1425L34.7844 7.63978C34.8731 7.22055 35.0457 6.82504 35.2912 6.47857C35.5367 6.1321 35.8496 5.84232 36.21 5.62777C36.5704 5.41322 36.9703 5.27864 37.384 5.23265C37.7977 5.18665 38.2162 5.23025 38.6127 5.36066L44.7624 7.38005C45.3076 7.55876 45.891 7.57264 46.4436 7.42003C46.9962 7.26741 47.4948 6.95471 47.8804 6.51894L52.2283 1.60503C52.5088 1.28833 52.8502 1.03537 53.2307 0.862307C53.6113 0.689238 54.0227 0.599854 54.4386 0.599854C54.8545 0.599854 55.2659 0.689238 55.6464 0.862307C56.027 1.03537 56.3684 1.28833 56.6489 1.60503L60.9968 6.51894C61.3824 6.95471 61.881 7.26741 62.4336 7.42003C62.9862 7.57264 63.5696 7.55876 64.1148 7.38005L70.2645 5.36066C70.661 5.23025 71.0795 5.18665 71.4932 5.23265C71.9069 5.27864 72.3068 5.41322 72.6672 5.62777C73.0275 5.84232 73.3405 6.1321 73.586 6.47857C73.8315 6.82504 74.0041 7.22055 74.0928 7.63978L75.4725 14.1425C75.5948 14.719 75.8748 15.2472 76.2795 15.6644C76.6841 16.0817 77.1964 16.3705 77.7554 16.4965Z" fill="#6D28D9"/>
<path d="M78.0623 38.1949C78.0574 42.7087 76.8363 47.1323 74.5353 50.9721C72.2342 54.812 68.9438 57.917 65.0311 59.9409C61.1183 61.9647 56.7372 62.8277 52.3765 62.4336C48.0158 62.0395 43.847 60.4038 40.3354 57.7089C36.8237 55.0141 34.1073 51.3661 32.4892 47.1721C30.871 42.978 30.4149 38.4029 31.1715 33.957C31.9282 29.5112 33.868 25.3696 36.7744 21.9944C39.6808 18.6191 43.4395 16.143 47.6313 14.8422C49.8386 14.1535 52.1329 13.8066 54.4391 13.8126C57.5431 13.8129 60.6167 14.4439 63.4842 15.6697C66.3516 16.8954 68.9567 18.6918 71.1505 20.9561C73.3444 23.2205 75.084 25.9084 76.27 28.8663C77.4559 31.8243 78.0649 34.9942 78.0623 38.1949Z" fill="#A78BFA"/>
<path d="M78.0621 38.1949C78.0644 42.3209 77.0492 46.3798 75.112 49.9901C73.1748 53.6003 70.3793 56.6434 66.988 58.8334C64.7807 59.522 62.4864 59.869 60.1802 59.8629C55.0492 59.866 50.0567 58.1469 45.9571 54.9653C41.8574 51.7838 38.8735 47.3127 37.4561 42.2278C36.0387 37.1429 36.265 31.7204 38.1006 26.7798C39.9363 21.8391 43.2816 17.6489 47.6311 14.8422C49.8385 14.1535 52.1328 13.8066 54.4389 13.8126C57.543 13.8129 60.6166 14.4439 63.484 15.6697C66.3515 16.8954 68.9566 18.6918 71.1504 20.9561C73.3443 23.2205 75.0839 25.9084 76.2698 28.8663C77.4558 31.8243 78.0648 34.9942 78.0621 38.1949Z" fill="#8B5CF6"/>
<path d="M56.1587 53.2245C55.7074 53.2245 55.2745 53.0396 54.9553 52.7105C54.6361 52.3814 54.4568 51.935 54.4568 51.4695V29.7079L50.068 32.799C49.8836 32.9342 49.6748 33.0301 49.454 33.0812C49.2332 33.1322 49.0047 33.1373 48.782 33.0962C48.5592 33.0551 48.3467 32.9686 48.1567 32.8417C47.9668 32.7149 47.8033 32.5503 47.6758 32.3575C47.5483 32.1647 47.4593 31.9477 47.4141 31.719C47.369 31.4904 47.3685 31.2547 47.4127 31.0259C47.4569 30.797 47.5449 30.5796 47.6716 30.3862C47.7983 30.1929 47.9611 30.0275 48.1505 29.8998L55.1988 24.9344C55.4547 24.7543 55.7533 24.6495 56.0626 24.6315C56.372 24.6134 56.6802 24.6828 56.9541 24.8321C57.228 24.9813 57.4572 25.2049 57.6169 25.4786C57.7767 25.7523 57.861 26.0657 57.8607 26.3852V51.4695C57.8607 51.935 57.6814 52.3814 57.3622 52.7105C57.043 53.0396 56.6101 53.2245 56.1587 53.2245Z" fill="#F5F3FF"/>
</g>
<defs>
<clipPath id="clip0_2857_318">
<rect width="108.8" height="108.8" fill="white" transform="translate(0 0.599976)"/>
</clipPath>
</defs>
</svg>
