<svg width="91" height="92" viewBox="0 0 91 92" fill="none" xmlns="http://www.w3.org/2000/svg">
<path d="M45.1871 6.64088V6.92945H22.3745V6.64088L23.8917 0.666626H43.6699L45.1871 6.64088Z" fill="#EDE9FE"/>
<path d="M0.0668945 6.64087H67.4964V91.3333H0.0668945V6.64087Z" fill="#4C1D95"/>
<path d="M6.15967 12.5605H61.3951V85.4254H6.15967V12.5605Z" fill="#C4B5FD"/>
<path d="M61.3952 12.5605V80.9603H22.835C21.5854 80.9603 20.348 80.7217 19.1936 80.2581C18.0392 79.7946 16.9904 79.1152 16.107 78.2587C15.2237 77.4022 14.5232 76.3854 14.0456 75.2665C13.5679 74.1476 13.3225 72.9485 13.3232 71.7376V12.5605H61.3952Z" fill="#A78BFA"/>
<path d="M13.6936 19.7087C13.2467 19.7087 12.8181 19.8806 12.5019 20.1866C12.1857 20.4926 12.0079 20.9077 12.0073 21.3407V29.6977C12.0079 30.1307 12.1857 30.5458 12.5019 30.8518C12.8181 31.1578 13.2467 31.3297 13.6936 31.3297H22.3179C22.7646 31.3297 23.193 31.1577 23.5089 30.8517C23.8247 30.5456 24.0022 30.1305 24.0022 29.6977V21.485C24.0022 21.2516 23.9547 21.0205 23.8624 20.8048C23.7702 20.5892 23.635 20.3933 23.4646 20.2283C23.2941 20.0633 23.0918 19.9325 22.8692 19.8434C22.6465 19.7542 22.4079 19.7085 22.167 19.7087H13.6936ZM13.6936 42.9389C13.2463 42.9389 12.8174 43.1111 12.5012 43.4175C12.185 43.7239 12.0073 44.1395 12.0073 44.5729V52.9298C12.0079 53.3628 12.1857 53.7779 12.5019 54.0839C12.8181 54.3899 13.2467 54.5618 13.6936 54.5618H22.3179C22.7646 54.5618 23.193 54.3899 23.5089 54.0838C23.8247 53.7777 24.0022 53.3626 24.0022 52.9298V44.7171C24.0022 44.2455 23.8088 43.7932 23.4647 43.4597C23.1205 43.1263 22.6537 42.9389 22.167 42.9389H13.6936ZM13.6936 65.8337C13.4722 65.8335 13.253 65.8755 13.0484 65.9574C12.8438 66.0393 12.6579 66.1595 12.5013 66.311C12.3447 66.4626 12.2205 66.6426 12.1357 66.8407C12.051 67.0388 12.0073 67.2512 12.0073 67.4657V75.8324C12.0079 76.2654 12.1857 76.6805 12.5019 76.9865C12.8181 77.2925 13.2467 77.4644 13.6936 77.4644H22.3179C22.7646 77.4644 23.193 77.2925 23.5089 76.9864C23.8247 76.6803 24.0022 76.2652 24.0022 75.8324V67.61C24.0022 67.3766 23.9547 67.1454 23.8624 66.9298C23.7702 66.7142 23.635 66.5183 23.4646 66.3533C23.2941 66.1883 23.0918 66.0575 22.8692 65.9684C22.6465 65.8792 22.4079 65.8335 22.167 65.8337H13.6936Z" fill="#6D28D9"/>
<path d="M54.336 26.9287H42.4377C42.0375 26.9287 41.6536 26.7747 41.3706 26.5004C41.0876 26.2262 40.9286 25.8542 40.9286 25.4664C40.9286 25.0785 41.0876 24.7066 41.3706 24.4323C41.6536 24.1581 42.0375 24.004 42.4377 24.004H54.336C54.7362 24.004 55.1201 24.1581 55.4031 24.4323C55.6862 24.7066 55.8452 25.0785 55.8452 25.4664C55.8452 25.8542 55.6862 26.2262 55.4031 26.5004C55.1201 26.7747 54.7362 26.9287 54.336 26.9287ZM36.3447 26.9287H30.2276C29.8273 26.9287 29.4434 26.7747 29.1604 26.5004C28.8774 26.2262 28.7184 25.8542 28.7184 25.4664C28.7184 25.0785 28.8774 24.7066 29.1604 24.4323C29.4434 24.1581 29.8273 24.004 30.2276 24.004H36.3447C36.745 24.004 37.1288 24.1581 37.4119 24.4323C37.6949 24.7066 37.8539 25.0785 37.8539 25.4664C37.8539 25.8542 37.6949 26.2262 37.4119 26.5004C37.1288 26.7747 36.745 26.9287 36.3447 26.9287ZM54.336 49.572H48.4402C48.0399 49.572 47.6561 49.4179 47.373 49.1437C47.09 48.8694 46.931 48.4975 46.931 48.1096C46.931 47.7218 47.09 47.3498 47.373 47.0756C47.6561 46.8013 48.0399 46.6473 48.4402 46.6473H54.336C54.7362 46.6473 55.1201 46.8013 55.4031 47.0756C55.6862 47.3498 55.8452 47.7218 55.8452 48.1096C55.8452 48.4975 55.6862 48.8694 55.4031 49.1437C55.1201 49.4179 54.7362 49.572 54.336 49.572ZM42.2969 49.572H30.2235C29.8233 49.572 29.4394 49.4179 29.1564 49.1437C28.8734 48.8694 28.7144 48.4975 28.7144 48.1096C28.7144 47.7218 28.8734 47.3498 29.1564 47.0756C29.4394 46.8013 29.8233 46.6473 30.2235 46.6473H42.2969C42.6971 46.6473 43.081 46.8013 43.364 47.0756C43.647 47.3498 43.806 47.7218 43.806 48.1096C43.806 48.4975 43.647 48.8694 43.364 49.1437C43.081 49.4179 42.6971 49.572 42.2969 49.572ZM19.0396 28.0791H18.9813C18.7815 28.0713 18.5853 28.0252 18.404 27.9436C18.2227 27.8619 18.0598 27.7463 17.9248 27.6034L16.0555 25.6145C15.922 25.4728 15.8187 25.307 15.7514 25.1266C15.6841 24.9462 15.6541 24.7547 15.6632 24.563C15.6722 24.3714 15.7202 24.1833 15.8042 24.0096C15.8883 23.8359 16.0068 23.68 16.1531 23.5507C16.2993 23.4214 16.4705 23.3212 16.6567 23.256C16.8428 23.1908 17.0405 23.1617 17.2383 23.1705C17.436 23.1793 17.6301 23.2257 17.8094 23.3072C17.9886 23.3886 18.1496 23.5035 18.283 23.6452L19.1241 24.5363L27.0201 17.3629C27.3117 17.0979 27.7001 16.956 28.0997 16.9684C28.4994 16.9808 28.8775 17.1466 29.151 17.4292C29.4245 17.7118 29.571 18.0881 29.5582 18.4754C29.5453 18.8626 29.3743 19.229 29.0826 19.4941L20.0719 27.6833C19.7925 27.938 19.4232 28.0797 19.0396 28.0791ZM19.0396 51.3093H18.9813C18.7815 51.3014 18.5853 51.2554 18.404 51.1737C18.2227 51.0921 18.0598 50.9764 17.9248 50.8335L16.0555 48.8447C15.922 48.703 15.8187 48.5372 15.7514 48.3568C15.6841 48.1763 15.6541 47.9848 15.6632 47.7932C15.6722 47.6015 15.7202 47.4135 15.8042 47.2398C15.8883 47.0661 16.0068 46.9101 16.1531 46.7808C16.2993 46.6515 16.4705 46.5514 16.6567 46.4862C16.8428 46.4209 17.0405 46.3919 17.2383 46.4007C17.436 46.4095 17.6301 46.4559 17.8094 46.5373C17.9886 46.6188 18.1496 46.7337 18.283 46.8754L19.1241 47.7665L27.0201 40.5931C27.3117 40.328 27.7001 40.1861 28.0997 40.1986C28.4994 40.211 28.8775 40.3768 29.151 40.6594C29.4245 40.942 29.571 41.3183 29.5582 41.7055C29.5453 42.0928 29.3743 42.4592 29.0826 42.7242L20.0719 50.9135C19.7926 51.1684 19.4233 51.31 19.0396 51.3093ZM19.0396 74.2021H18.9813C18.7815 74.1943 18.5853 74.1482 18.404 74.0666C18.2227 73.9849 18.0598 73.8693 17.9248 73.7264L16.0495 71.7376C15.9081 71.5972 15.7974 71.4307 15.7239 71.2481C15.6503 71.0654 15.6154 70.8703 15.6212 70.6742C15.6271 70.4782 15.6735 70.2854 15.7578 70.1071C15.8422 69.9289 15.9626 69.7689 16.112 69.6366C16.2615 69.5044 16.4368 69.4026 16.6276 69.3374C16.8185 69.2722 17.0209 69.2448 17.2229 69.2569C17.4248 69.269 17.6223 69.3203 17.8033 69.4078C17.9844 69.4953 18.1455 69.6172 18.277 69.7663L19.1181 70.6574L27.014 63.482C27.3086 63.2321 27.6918 63.1029 28.0828 63.1216C28.4738 63.1403 28.842 63.3055 29.1096 63.5823C29.3773 63.8591 29.5235 64.2259 29.5173 64.6052C29.5111 64.9845 29.3531 65.3466 29.0766 65.6151L20.0658 73.8044C19.7884 74.0586 19.4214 74.2009 19.0396 74.2021ZM54.7304 73.0615H42.8341C42.4339 73.0615 42.05 72.9074 41.767 72.6332C41.484 72.3589 41.325 71.987 41.325 71.5991C41.325 71.2113 41.484 70.8393 41.767 70.5651C42.05 70.2908 42.4339 70.1368 42.8341 70.1368H54.7304C55.1306 70.1368 55.5145 70.2908 55.7975 70.5651C56.0805 70.8393 56.2395 71.2113 56.2395 71.5991C56.2395 71.987 56.0805 72.3589 55.7975 72.6332C55.5145 72.9074 55.1306 73.0615 54.7304 73.0615ZM36.7331 73.0615H30.622C30.2217 73.0615 29.8378 72.9074 29.5548 72.6332C29.2718 72.3589 29.1128 71.987 29.1128 71.5991C29.1128 71.2113 29.2718 70.8393 29.5548 70.5651C29.8378 70.2908 30.2217 70.1368 30.622 70.1368H36.7331C37.1333 70.1368 37.5172 70.2908 37.8002 70.5651C38.0832 70.8393 38.2422 71.2113 38.2422 71.5991C38.2422 71.987 38.0832 72.3589 37.8002 72.6332C37.5172 72.9074 37.1333 73.0615 36.7331 73.0615Z" fill="#EDE9FE"/>
<path d="M90.7338 40.872C90.7338 41.2599 90.5748 41.6318 90.2917 41.9061C90.0087 42.1803 89.6248 42.3344 89.2246 42.3344C88.8243 42.3344 88.4405 42.1803 88.1574 41.9061C87.8744 41.6318 87.7154 41.2599 87.7154 40.872V27.4963C87.6148 27.1648 87.2124 26.3849 85.4416 26.3849H83.9244V23.7136C83.9277 23.6287 83.921 23.5436 83.9043 23.4601H85.4436C86.6453 23.3214 87.8566 23.6282 88.8345 24.3189C89.8123 25.0097 90.4844 26.0333 90.7156 27.1843L90.7338 40.872ZM84.0331 76.3198L79.4653 91.3334L74.8774 76.3198H84.0331Z" fill="#6D28D9"/>
<path d="M74.8774 40.8719H84.0331V76.3197H74.8774V40.8719Z" fill="#C4B5FD"/>
<path d="M84.0345 23.7134V40.8719H74.8789V23.7134C74.8789 22.537 75.3612 21.4087 76.2197 20.5768C77.0782 19.7449 78.2426 19.2776 79.4567 19.2776C80.6708 19.2776 81.8352 19.7449 82.6937 20.5768C83.5522 21.4087 84.0345 22.537 84.0345 23.7134Z" fill="#6D28D9"/>
<path d="M84.0326 76.3198L79.4648 91.3334V76.3198H84.0326Z" fill="#7C3AED"/>
<path d="M79.4648 40.8719H84.0326V76.3197H79.4648V40.8719Z" fill="#A78BFA"/>
<path d="M84.0345 23.7137V40.8721H79.4668V19.2876C80.6319 19.287 81.7529 19.7193 82.599 20.4955C83.445 21.2718 83.9516 22.3329 84.0144 23.4602C84.0311 23.5437 84.0379 23.6287 84.0345 23.7137Z" fill="#7C3AED"/>
</svg>
