<svg width="109" height="110" viewBox="0 0 109 110" fill="none" xmlns="http://www.w3.org/2000/svg">
<path d="M70.1717 88.6798V95.8H38.625V88.6798H46.151L47.4768 76.6418L47.7888 73.7747V73.7178H60.9885L61.008 73.7747L61.3199 76.6418L62.6458 88.6798H70.1717Z" fill="#8B5CF6"/>
<path d="M61.3202 76.6418H47.4771L47.789 73.7747V73.7178H60.9887L61.0082 73.7747L61.3202 76.6418Z" fill="#7C3AED"/>
<path d="M62.638 88.6738H38.6211V95.7922H70.1756V88.6738H62.638Z" fill="#A78BFA"/>
<path d="M96.5126 14.2H12.284C11.43 14.202 10.6118 14.5337 10.0087 15.1225C9.40558 15.7112 9.06689 16.5089 9.06689 17.3405V70.6303C9.06689 71.4619 9.40558 72.2596 10.0087 72.8483C10.6118 73.4371 11.43 73.7688 12.284 73.7709H96.3176C96.7663 73.7711 97.2106 73.6852 97.6252 73.5181C98.0397 73.351 98.4164 73.106 98.7336 72.7971C99.0509 72.4881 99.3025 72.1213 99.4741 71.7176C99.6456 71.3139 99.7338 70.8812 99.7336 70.4443V17.3405C99.7336 16.5082 99.3943 15.71 98.7904 15.1211C98.1865 14.5323 97.3672 14.201 96.5126 14.2Z" fill="#C4B5FD"/>
<path d="M15.0527 19.642H93.7441V62.9901H15.0527V19.642Z" fill="#4C1D95"/>
<path d="M93.7438 19.642V59.0407H32.717C29.6252 59.0392 26.6605 57.8424 24.4743 55.7134C22.2881 53.5844 21.0592 50.6972 21.0576 47.6863V19.642H93.7438Z" fill="#6D28D9"/>
<path d="M81.8507 50.1354C81.8756 50.0747 81.9084 50.0172 81.9482 49.9645V49.9456C82.4972 49.0336 82.9418 48.0658 83.274 47.0595C84.1785 44.2413 84.161 41.2189 83.2241 38.4108C82.2871 35.6026 80.477 33.1476 78.0443 31.3853C75.6115 29.6231 72.6764 28.6408 69.6452 28.5745C66.614 28.5082 63.6366 29.3611 61.125 31.0152C59.3904 32.1487 57.9327 33.6395 56.8551 35.3823C55.8572 36.9792 55.1922 38.7519 54.8981 40.5991C54.604 42.4464 54.6865 44.332 55.141 46.1482C55.5955 47.9644 56.413 49.6756 57.5468 51.184C58.6806 52.6924 60.1085 53.9684 61.7489 54.9392C64.0815 56.2674 66.7291 56.9807 69.4309 57.0088C70.9587 57.02 72.4767 56.7693 73.9153 56.2683C74.9387 55.9046 75.9298 55.4601 76.8789 54.9392L76.8984 54.9582L81.0903 59.0405H90.9755C86.7251 54.9202 81.8507 50.1544 81.8507 50.1354Z" fill="#4C1D95"/>
<path d="M98.0338 68.2912C97.8845 68.8837 97.5669 69.4232 97.1174 69.8481C96.4605 70.4801 95.5743 70.8345 94.651 70.8345C93.7276 70.8345 92.8414 70.4801 92.1846 69.8481L85.146 62.9937H93.7443V61.7595L97.1174 65.0443C97.5528 65.4573 97.8672 65.9759 98.0283 66.5466C98.1894 67.1173 98.1912 67.7195 98.0338 68.2912Z" fill="#DDD6FE"/>
<path d="M93.7441 61.7557V62.9899H85.1458L81.0903 59.0405H90.9755C91.9504 59.9899 92.9057 60.9203 93.7441 61.7557Z" fill="#5B21B6"/>
<path d="M98.7062 63.5901L83.4242 48.7078C85.2687 45.7351 85.9318 42.2076 85.2884 38.7913C84.645 35.375 82.7395 32.3063 79.9317 30.1645C77.124 28.0227 73.6082 26.9561 70.0481 27.166C66.488 27.3759 63.1301 28.8478 60.6081 31.3037C58.0861 33.7597 56.5747 37.0299 56.3592 40.4968C56.1437 43.9637 57.239 47.3876 59.4383 50.1219C61.6375 52.8562 64.7887 54.7118 68.2967 55.3384C71.8048 55.965 75.4271 55.3192 78.4796 53.523L93.7617 68.4072C94.4176 69.0453 95.3068 69.4038 96.2339 69.4038C97.1611 69.4038 98.0503 69.0453 98.7062 68.4072C99.3621 67.7684 99.7306 66.902 99.7306 65.9986C99.7306 65.0952 99.3621 64.2289 98.7062 63.5901Z" fill="#A78BFA"/>
<path d="M70.9165 55.5677C78.9861 55.5677 85.5278 49.1971 85.5278 41.3386C85.5278 33.4801 78.9861 27.1095 70.9165 27.1095C62.8469 27.1095 56.3052 33.4801 56.3052 41.3386C56.3052 49.1971 62.8469 55.5677 70.9165 55.5677Z" fill="#8B5CF6"/>
<path d="M98.7062 63.5899L83.4125 48.6924C82.8003 49.6721 82.0719 50.5783 81.2424 51.3924C80.8414 51.7817 80.4176 52.1482 79.9731 52.4899L94.563 66.6943C95.2186 67.3323 96.1075 67.6908 97.0343 67.6908C97.9612 67.6908 98.8501 67.3323 99.5056 66.6943L99.6889 66.5044C99.7712 65.9776 99.7251 65.4393 99.5544 64.933C99.3837 64.4267 99.0932 63.9666 98.7062 63.5899Z" fill="#C4B5FD"/>
<path d="M70.9165 27.1095C67.4347 27.106 64.0671 28.3187 61.4252 30.5272C59.5758 33.4096 58.8469 36.8415 59.3704 40.2018C59.894 43.5622 61.6354 46.629 64.2795 48.8475C66.9237 51.0659 70.2959 52.2893 73.786 52.2964C77.2761 52.3035 80.6535 51.0938 83.3071 48.8861C84.6911 46.7321 85.4575 44.2565 85.5268 41.7165C85.5961 39.1764 84.9657 36.6647 83.7011 34.4422C82.4365 32.2197 80.5839 30.3674 78.3357 29.078C76.0875 27.7885 73.5257 27.1088 70.9165 27.1095Z" fill="#C4B5FD"/>
</svg>
