<svg width="109" height="56" viewBox="0 0 109 56" fill="none" xmlns="http://www.w3.org/2000/svg">
<path d="M107.672 33.0086L98.3235 16.8376C98.0924 16.4388 97.7549 16.1069 97.3459 15.8764C96.9369 15.6459 96.4715 15.5253 95.9978 15.5271H81.5375V2.17712C81.5363 1.81223 81.3855 1.46261 81.1181 1.20459C80.8506 0.946572 80.4882 0.801098 80.1099 0.799927H22.3378C21.9595 0.801098 21.5971 0.946572 21.3296 1.20459C21.0622 1.46261 20.9114 1.81223 20.9102 2.17712V45.7299C20.9102 46.2601 21.1285 46.7686 21.5171 47.1435C21.9058 47.5184 22.4329 47.729 22.9825 47.729H107.557C107.72 47.7296 107.882 47.699 108.033 47.6389C108.185 47.5788 108.322 47.4905 108.437 47.379C108.553 47.2675 108.645 47.135 108.707 46.9893C108.769 46.8435 108.801 46.6872 108.8 46.5295V37.229C108.801 35.7527 108.413 34.3005 107.672 33.0086Z" fill="#8B5CF6"/>
<path d="M108.801 37.2287V43.4483H90.7576C89.6437 43.4483 88.5754 43.0214 87.7877 42.2616C87.0001 41.5018 86.5576 40.4712 86.5576 39.3967V15.5268H95.9983C96.4719 15.525 96.9374 15.6456 97.3463 15.8761C97.7553 16.1066 98.0928 16.4385 98.3239 16.8373L107.672 33.0083C108.413 34.3002 108.801 35.7524 108.801 37.2287Z" fill="#A78BFA"/>
<path d="M102.836 47.7356C102.844 49.2643 102.353 50.7565 101.432 52.0005C100.492 53.3046 99.1453 54.2851 97.5876 54.799C96.0298 55.3128 94.3427 55.3332 92.7721 54.8571C91.2015 54.381 89.8297 53.4333 88.8566 52.1523C87.8836 50.8712 87.3602 49.3238 87.3628 47.7356C87.3628 45.7562 88.1779 43.8578 89.6288 42.4581C91.0798 41.0584 93.0476 40.2721 95.0995 40.2721C97.1514 40.2721 99.1193 41.0584 100.57 42.4581C102.021 43.8578 102.836 45.7562 102.836 47.7356Z" fill="#A5B4FC"/>
<path d="M81.5373 2.17712V43.6707H34.4285C33.3154 43.6707 32.2133 43.4592 31.1849 43.0483C30.1566 42.6374 29.2222 42.0351 28.4352 41.2759C27.6481 40.5166 27.0238 39.6152 26.5978 38.6232C26.1719 37.6312 25.9526 36.5679 25.9526 35.4942V0.799927H80.1097C80.488 0.801098 80.8504 0.946572 81.1178 1.20459C81.3853 1.46261 81.5361 1.81223 81.5373 2.17712Z" fill="#A78BFA"/>
<path d="M102.836 47.7358C102.844 49.2644 102.353 50.7567 101.432 52.0006C100.753 52.199 100.046 52.2963 99.3364 52.2894C97.2847 52.2888 95.3172 51.5023 93.8664 50.1027C92.4156 48.7032 91.6003 46.8051 91.5997 44.8259C91.5927 43.2802 92.0924 41.7719 93.0273 40.5166C94.1787 40.212 95.3875 40.1679 96.5594 40.3877C97.7314 40.6075 98.835 41.0853 99.7842 41.7839C100.733 42.4825 101.503 43.383 102.032 44.4154C102.561 45.4477 102.837 46.584 102.836 47.7358Z" fill="#C4B5FD"/>
<path d="M52.9393 47.7358C52.9381 49.1256 52.5346 50.4875 51.7744 51.6681C51.0142 52.8486 49.9274 53.801 48.6364 54.4178C47.3454 55.0346 45.9014 55.2915 44.4673 55.1594C43.0331 55.0273 41.6657 54.5116 40.519 53.6702C39.3723 52.8289 38.4919 51.6954 37.9769 50.3974C37.462 49.0994 37.3329 47.6885 37.6044 46.3236C37.8758 44.9586 38.5369 43.6939 39.5132 42.6719C40.4895 41.6499 41.7422 40.9111 43.1302 40.5389C43.8015 40.3405 44.5005 40.2431 45.2025 40.2501C46.2202 40.251 47.2278 40.4454 48.1675 40.8221C49.1073 41.1989 49.9608 41.7507 50.6794 42.4459C51.3979 43.1412 51.9673 43.9662 52.3551 44.8739C52.7429 45.7816 52.9414 46.7541 52.9393 47.7358Z" fill="#A5B4FC"/>
<path d="M52.9393 47.7358C52.9363 49.2629 52.4459 50.752 51.5347 52.0007C50.8555 52.199 50.149 52.2964 49.4394 52.2895C47.3877 52.2889 45.4201 51.5024 43.9694 50.1028C42.5186 48.7033 41.7033 46.8052 41.7027 44.826C41.6991 43.2876 42.1987 41.7874 43.1303 40.5389C43.8016 40.3405 44.5006 40.2431 45.2026 40.2501C46.2203 40.251 47.2278 40.4454 48.1676 40.8221C49.1073 41.1989 49.9609 41.7507 50.6794 42.4459C51.398 43.1412 51.9674 43.9662 52.3552 44.8739C52.7429 45.7816 52.9414 46.7541 52.9393 47.7358Z" fill="#C4B5FD"/>
<path d="M27.7417 36.5805H5.82096C5.36295 36.5805 4.92369 36.405 4.59983 36.0926C4.27596 35.7802 4.09402 35.3564 4.09402 34.9146C4.09402 34.4727 4.27596 34.049 4.59983 33.7366C4.92369 33.4241 5.36295 33.2486 5.82096 33.2486H27.7417C28.1997 33.2486 28.639 33.4241 28.9628 33.7366C29.2867 34.049 29.4686 34.4727 29.4686 34.9146C29.4686 35.3564 29.2867 35.7802 28.9628 36.0926C28.639 36.405 28.1997 36.5805 27.7417 36.5805ZM45.2069 29.0037H14.6215C14.1635 29.0037 13.7242 28.8282 13.4004 28.5158C13.0765 28.2034 12.8945 27.7796 12.8945 27.3378C12.8945 26.8959 13.0765 26.4722 13.4004 26.1598C13.7242 25.8473 14.1635 25.6718 14.6215 25.6718H45.2069C45.6649 25.6718 46.1041 25.8473 46.428 26.1598C46.7519 26.4722 46.9338 26.8959 46.9338 27.3378C46.9338 27.7796 46.7519 28.2034 46.428 28.5158C46.1041 28.8282 45.6649 29.0037 45.2069 29.0037ZM13.6705 20.2074H1.72695C1.26893 20.2074 0.829677 20.0319 0.505811 19.7195C0.181946 19.4071 0 18.9833 0 18.5415C0 18.0996 0.181946 17.6759 0.505811 17.3635C0.829677 17.051 1.26893 16.8755 1.72695 16.8755H13.6705C14.1285 16.8755 14.5678 17.051 14.8917 17.3635C15.2155 17.6759 15.3975 18.0996 15.3975 18.5415C15.3975 18.9833 15.2155 19.4071 14.8917 19.7195C14.5678 20.0319 14.1285 20.2074 13.6705 20.2074ZM32.8212 11.0047H11.7386C11.2806 11.0047 10.8414 10.8291 10.5175 10.5167C10.1936 10.2043 10.0117 9.78053 10.0117 9.33869C10.0117 8.89685 10.1936 8.47311 10.5175 8.16068C10.8414 7.84825 11.2806 7.67273 11.7386 7.67273H32.8212C33.2792 7.67273 33.7185 7.84825 34.0423 8.16068C34.3662 8.47311 34.5482 8.89685 34.5482 9.33869C34.5482 9.78053 34.3662 10.2043 34.0423 10.5167C33.7185 10.8291 33.2792 11.0047 32.8212 11.0047Z" fill="#A5B4FC"/>
</svg>
