<svg width="136" height="136" viewBox="0 0 136 136" fill="none" xmlns="http://www.w3.org/2000/svg">
<path fill-rule="evenodd" clip-rule="evenodd" d="M37.7652 115.843C19.4058 109.501 15.3115 94.6765 14.8391 76.7834C14.729 72.6152 14.8213 68.473 14.9304 64.3074C23.035 62.8952 30.796 60.2944 37.9119 56.0699C42.2018 58.6146 46.5482 60.4875 51.2842 61.9835C51.6137 62.0877 51.6797 62.4933 52.3715 62.4933C52.7065 62.4933 52.6365 62.3998 52.8692 62.4661C55.6584 63.2611 58.0158 63.8053 60.8962 64.3074C61.1586 74.2556 61.3793 85.5455 58.4427 95.0542C55.1288 105.785 48.4477 112.255 38.0585 115.843H37.7652ZM52.7711 75.8161C52.5351 75.5753 52.2151 75.4401 51.8816 75.4401C51.548 75.4402 51.2281 75.5755 50.9921 75.8164L34.8442 92.3095L27.2161 84.5185C27.0993 84.3991 26.9607 84.3043 26.8081 84.2396C26.6555 84.1749 26.4919 84.1416 26.3266 84.1416C26.1614 84.1416 25.9978 84.1748 25.8452 84.2395C25.6925 84.3041 25.5539 84.3988 25.4371 84.5182C25.32 84.6377 25.2271 84.7796 25.1638 84.9358C25.1004 85.092 25.0678 85.2594 25.0678 85.4285C25.0678 85.5975 25.1004 85.765 25.1638 85.9211C25.2271 86.0773 25.32 86.2192 25.4371 86.3387L33.9541 95.0393C34.071 95.159 34.2099 95.2539 34.3628 95.3187C34.5157 95.3834 34.6796 95.4168 34.8451 95.4168C35.0106 95.4168 35.1745 95.3834 35.3274 95.3187C35.4803 95.2539 35.6192 95.159 35.7361 95.0393L52.7714 77.6352C52.8884 77.5159 52.9813 77.3741 53.0447 77.218C53.1081 77.0619 53.1407 76.8946 53.1406 76.7256C53.1406 76.5566 53.108 76.3893 53.0446 76.2333C52.9811 76.0772 52.8882 75.9354 52.7711 75.8161ZM61.248 47.4408V34.8934C61.249 34.6763 61.3338 34.4685 61.4841 34.315C61.6343 34.1615 61.8378 34.0749 62.0502 34.0738H91.9297V47.4408H61.248ZM94.4478 20.8596C94.4488 20.6425 94.5336 20.4347 94.6839 20.2812C94.8341 20.1277 95.0376 20.0411 95.25 20.04H109.445C109.657 20.0411 109.861 20.1277 110.011 20.2812C110.161 20.4347 110.246 20.6425 110.247 20.8596V47.4408H94.4478V20.8596ZM34.0157 40.6256C34.0157 41.2967 33.4638 41.8328 32.9383 42.1501C32.2479 42.5672 31.4033 42.7593 30.6059 42.7593H17.719C16.9221 42.7593 16.0778 42.5669 15.3879 42.1499C14.8626 41.8325 14.3108 41.2967 14.3108 40.6256V38.8475C14.3108 38.177 14.8629 37.6414 15.3879 37.3243C16.078 36.9075 16.9221 36.7151 17.719 36.7151L29.388 36.7224C29.6069 36.7621 29.6644 36.8279 29.9156 36.8247L33.0213 36.7999C33.3644 36.8918 33.9311 37.1865 34.0157 37.4715V40.6256Z" fill="#C4B5FD"/>
<path fill-rule="evenodd" clip-rule="evenodd" d="M53.095 75.4857C53.2546 75.6485 53.3813 75.8418 53.4677 76.0546C53.5541 76.2675 53.5986 76.4956 53.5986 76.726C53.5986 76.9564 53.5541 77.1845 53.4677 77.3973C53.3813 77.6102 53.2546 77.8035 53.095 77.9662L36.0598 95.3703C35.9002 95.5333 35.7109 95.6626 35.5025 95.7508C35.294 95.839 35.0706 95.8844 34.845 95.8844C34.6194 95.8844 34.396 95.839 34.1876 95.7508C33.9792 95.6626 33.7898 95.5333 33.6303 95.3703L25.1133 86.6697C24.9537 86.5068 24.827 86.3134 24.7406 86.1005C24.6542 85.8875 24.6098 85.6593 24.6098 85.4288C24.6098 85.1983 24.6542 84.9701 24.7406 84.7571C24.827 84.5442 24.9537 84.3508 25.1133 84.1879C25.7817 83.502 26.8698 83.502 27.54 84.1879L34.8444 91.6482L50.6686 75.4857C51.3383 74.8014 52.4264 74.8014 53.095 75.4857ZM97.4247 74.4718V60.438C97.4247 59.4684 98.1945 58.6833 99.1423 58.6833C100.09 58.6833 100.858 59.4681 100.858 60.438V74.4718C100.858 75.4401 100.09 76.2249 99.1423 76.2249C98.1945 76.2249 97.4247 75.4398 97.4247 74.4718ZM83.687 74.4718V60.438C83.687 59.9728 83.8679 59.5267 84.1899 59.1978C84.5119 58.8688 84.9486 58.6841 85.4039 58.6841C85.8593 58.6841 86.296 58.8688 86.6179 59.1978C86.9399 59.5267 87.1208 59.9728 87.1208 60.438V74.4718C87.1208 74.9367 86.94 75.3826 86.6182 75.7114C86.2963 76.0402 85.8598 76.2249 85.4047 76.2249C85.1792 76.225 84.9559 76.1797 84.7476 76.0917C84.5393 76.0036 84.3499 75.8745 84.1904 75.7117C84.0309 75.5489 83.9044 75.3556 83.818 75.1429C83.7316 74.9301 83.6871 74.7021 83.687 74.4718ZM69.9494 74.4718V60.438C69.9492 60.2076 69.9935 59.9795 70.0797 59.7667C70.1659 59.5538 70.2923 59.3604 70.4516 59.1975C70.611 59.0345 70.8002 58.9052 71.0085 58.817C71.2168 58.7288 71.44 58.6833 71.6655 58.6833C72.121 58.6833 72.5579 58.8682 72.88 59.1973C73.2021 59.5263 73.3831 59.9726 73.3831 60.438V74.4718C73.3828 74.9369 73.2017 75.3828 72.8796 75.7116C72.5575 76.0403 72.1208 76.2249 71.6655 76.2249C71.2104 76.2248 70.7739 76.0401 70.4521 75.7113C70.1303 75.3826 69.9494 74.9367 69.9494 74.4718ZM105.047 103.181C105.047 105.858 102.913 108.038 100.288 108.038C97.6648 108.038 95.5305 105.858 95.5305 103.181C95.5305 100.499 97.6648 98.319 100.288 98.319C102.913 98.319 105.047 100.499 105.047 103.181ZM74.7781 103.181C74.7781 105.858 72.6438 108.038 70.0204 108.038C67.3986 108.038 65.2627 105.858 65.2627 103.181C65.2627 100.499 67.3983 98.319 70.0204 98.319C72.6438 98.319 74.7781 100.499 74.7781 103.181ZM37.9118 115.399C48.4213 111.771 54.8139 105.25 58.006 94.9133C60.8609 85.6701 60.7104 74.6325 60.4485 64.7037C58.3131 64.3306 56.1951 63.8607 54.1006 63.2951C53.6464 63.1737 53.1977 63.0453 52.7463 62.9166C52.6233 62.9455 52.4976 62.9604 52.3715 62.961C51.9113 62.961 51.4698 62.7645 51.1487 62.4304C46.3332 60.9093 41.8185 58.9286 37.9118 56.611C31.3473 60.5069 23.2896 63.3246 15.3779 64.704C15.1176 74.6328 14.9625 85.6704 17.8188 94.9136C21.0125 105.25 27.4051 111.771 37.9118 115.399ZM119.543 50.4822H50.3196L53.5899 59.5138C56.5656 60.3743 59.3568 61.0009 62.3787 61.4634C63.2006 61.5905 63.8199 62.3015 63.8416 63.15C64.0253 69.9377 64.2223 77.3049 63.5031 84.4254L101.191 84.4283C104.687 84.4283 107.651 82.4932 109.119 79.2517L121.067 52.9223C121.189 52.661 121.243 52.3723 121.226 52.0835C121.208 51.7946 121.119 51.5151 120.967 51.2711C120.815 51.0271 120.604 50.8267 120.355 50.6887C120.106 50.5507 119.827 50.4797 119.543 50.4822ZM61.706 34.8934C61.706 34.7013 61.8639 34.5416 62.0504 34.5416H91.4718V46.9731H61.706V34.8934ZM95.25 20.5078H109.445C109.632 20.5078 109.789 20.6675 109.789 20.8596V46.9731H94.9056V20.8596C94.9056 20.6675 95.0632 20.5078 95.25 20.5078ZM33.5577 37.6133V40.6257C33.5577 41.3959 32.2685 42.2916 30.6058 42.2916H17.7189C16.0578 42.2916 14.7686 41.3959 14.7686 40.6257V38.8475C14.7686 38.0789 16.0578 37.1831 17.7189 37.1831H29.3079C29.4541 37.2098 29.5514 37.2951 29.9214 37.2925L32.905 37.2526C33.2639 37.3486 33.4941 37.5157 33.5577 37.6133ZM101.191 87.9363C106.059 87.9363 110.189 85.2415 112.236 80.7286L124.184 54.398C125.76 50.9283 123.284 46.9731 119.543 46.9731H113.223V20.8596C113.223 18.7309 111.528 17 109.445 17H95.25C93.1662 17 91.4718 18.7309 91.4718 20.8596V31.0338H62.0504C59.9654 31.0338 58.2722 32.7647 58.2722 34.8934V46.9731H49.0519L46.2548 39.2497C45.0264 35.8544 41.9587 33.674 38.4223 33.674C38.386 33.674 38.3469 33.674 38.3109 33.6769L33.2116 33.7419C32.928 33.698 32.6417 33.6752 32.3549 33.6738H17.7189C14.139 33.6738 11.3333 35.9473 11.3333 38.8475V40.6257C11.3333 43.5259 14.139 45.7994 17.7189 45.7994H30.6058C34.187 45.7994 36.9913 43.5259 36.9913 40.6257L36.9711 37.2009L38.4225 37.1831C40.5364 37.1831 42.2991 38.4367 43.0341 40.4662L49.4369 58.1571C45.5548 56.7469 41.946 55.0249 38.806 53.0721C38.5368 52.9046 38.2276 52.8161 37.9124 52.8161C37.5972 52.8161 37.2881 52.9046 37.0189 53.0721C30.2676 57.2674 21.7214 60.1997 13.4474 61.4637C13.0486 61.5248 12.6836 61.7272 12.4161 62.0356C12.1487 62.3439 11.9959 62.7385 11.9845 63.1502C11.6981 73.725 11.3754 85.7103 14.5442 95.9688C18.1037 107.493 25.576 114.999 37.3834 118.915C37.7282 119.028 38.0993 119.028 38.444 118.915C49.4497 115.263 56.6862 108.492 60.5019 98.2569C61.2574 98.3577 62.5609 98.319 63.3567 98.319C59.4983 103.836 63.3652 111.546 70.0201 111.546C76.6917 111.546 80.534 103.811 76.682 98.319H93.6261C89.7743 103.81 93.6161 111.546 100.288 111.546C106.945 111.546 110.809 103.835 106.951 98.319H113.506C114.457 98.319 115.224 97.5342 115.224 96.5659C115.224 95.5976 114.457 94.8112 113.506 94.8112H61.622C62.2471 92.5821 62.7172 90.2806 63.069 87.9348L101.191 87.9363Z" fill="#8B5CF6"/>
</svg>
