<svg width="109" height="110" viewBox="0 0 109 110" fill="none" xmlns="http://www.w3.org/2000/svg">
<path fill-rule="evenodd" clip-rule="evenodd" d="M30.2123 93.2744C15.5247 88.2014 12.2493 76.3415 11.8714 62.027C11.7833 58.6925 11.8571 55.3787 11.9444 52.0463C18.4281 50.9165 24.6369 48.8358 30.3296 45.4562C33.7615 47.492 37.2386 48.9903 41.0274 50.1871C41.2911 50.2704 41.3438 50.5949 41.8973 50.5949C42.1653 50.5949 42.1093 50.5202 42.2955 50.5732C44.5268 51.2092 46.4127 51.6445 48.717 52.0463C48.927 60.0048 49.1035 69.0367 46.7543 76.6436C44.1031 85.2279 38.7583 90.4044 30.4469 93.2744H30.2123ZM42.217 61.2532C42.0282 61.0605 41.7722 60.9523 41.5054 60.9524C41.2385 60.9524 40.9826 61.0607 40.7938 61.2534L27.8755 74.4479L21.7729 68.2151C21.6796 68.1195 21.5687 68.0437 21.4466 67.992C21.3245 67.9403 21.1936 67.9136 21.0614 67.9136C20.9292 67.9136 20.7983 67.9402 20.6762 67.9919C20.5541 68.0436 20.4432 68.1194 20.3498 68.2149C20.2561 68.3105 20.1818 68.424 20.1311 68.549C20.0804 68.6739 20.0543 68.8078 20.0543 68.9431C20.0543 69.0783 20.0804 69.2123 20.1311 69.3372C20.1818 69.4622 20.2561 69.5757 20.3498 69.6713L27.1634 76.6317C27.2569 76.7275 27.368 76.8034 27.4903 76.8552C27.6126 76.907 27.7438 76.9337 27.8762 76.9337C28.0086 76.9337 28.1397 76.907 28.262 76.8552C28.3843 76.8034 28.4954 76.7275 28.589 76.6317L42.2172 62.7085C42.3109 62.613 42.3852 62.4996 42.4359 62.3747C42.4865 62.2498 42.5126 62.116 42.5126 61.9808C42.5126 61.8456 42.4865 61.7118 42.4357 61.5869C42.385 61.4621 42.3107 61.3486 42.217 61.2532ZM48.9985 38.5529V28.515C48.9993 28.3414 49.0672 28.1751 49.1874 28.0523C49.3075 27.9295 49.4703 27.8602 49.6403 27.8594H73.5438V38.5529H48.9985ZM75.5583 17.2879C75.5591 17.1143 75.627 16.948 75.7472 16.8253C75.8674 16.7025 76.0302 16.6331 76.2001 16.6323H87.5561C87.7261 16.6331 87.8888 16.7025 88.009 16.8253C88.1292 16.948 88.1971 17.1143 88.1979 17.2879V38.5529H75.5583V17.2879ZM27.2126 33.1008C27.2126 33.6376 26.7711 34.0665 26.3507 34.3204C25.7984 34.6541 25.1227 34.8077 24.4848 34.8077H14.1753C13.5378 34.8077 12.8623 34.6538 12.3104 34.3202C11.8902 34.0663 11.4487 33.6376 11.4487 33.1008V31.6783C11.4487 31.1419 11.8904 30.7134 12.3104 30.4597C12.8625 30.1263 13.5378 29.9724 14.1753 29.9724L23.5105 29.9782C23.6856 30.01 23.7316 30.0626 23.9325 30.0601L26.4171 30.0403C26.6916 30.1137 27.145 30.3495 27.2126 30.5775V33.1008Z" fill="#C4B5FD"/>
<path fill-rule="evenodd" clip-rule="evenodd" d="M42.4763 60.9888C42.604 61.119 42.7053 61.2737 42.7744 61.4439C42.8436 61.6142 42.8792 61.7967 42.8792 61.981C42.8792 62.1653 42.8436 62.3478 42.7744 62.5181C42.7053 62.6883 42.604 62.843 42.4763 62.9732L28.8481 76.8965C28.7205 77.0268 28.569 77.1303 28.4023 77.2008C28.2355 77.2714 28.0568 77.3077 27.8763 77.3077C27.6958 77.3077 27.5171 77.2714 27.3504 77.2008C27.1836 77.1303 27.0321 77.0268 26.9045 76.8965L20.0909 69.936C19.9632 69.8057 19.8619 69.6509 19.7928 69.4806C19.7237 69.3102 19.6881 69.1276 19.6881 68.9432C19.6881 68.7588 19.7237 68.5763 19.7928 68.4059C19.8619 68.2356 19.9632 68.0808 20.0909 67.9505C20.6256 67.4018 21.4961 67.4018 22.0323 67.9505L27.8758 73.9188L40.5352 60.9888C41.0709 60.4413 41.9414 60.4413 42.4763 60.9888ZM77.94 60.1776V48.9506C77.94 48.1749 78.5559 47.5468 79.3142 47.5468C80.0725 47.5468 80.6871 48.1747 80.6871 48.9506V60.1776C80.6871 60.9523 80.0725 61.5801 79.3142 61.5801C78.5559 61.5801 77.94 60.952 77.94 60.1776ZM66.9499 60.1776V48.9506C66.9499 48.5784 67.0946 48.2216 67.3522 47.9584C67.6098 47.6953 67.9592 47.5475 68.3234 47.5475C68.6877 47.5475 69.0371 47.6953 69.2947 47.9584C69.5522 48.2216 69.6969 48.5784 69.6969 48.9506V60.1776C69.6969 60.5496 69.5523 60.9063 69.2948 61.1693C69.0374 61.4323 68.6882 61.5801 68.324 61.5801C68.1437 61.5802 67.9651 61.544 67.7984 61.4735C67.6317 61.4031 67.4802 61.2998 67.3526 61.1696C67.225 61.0394 67.1238 60.8847 67.0547 60.7145C66.9856 60.5443 66.95 60.3619 66.9499 60.1776ZM55.9598 60.1776V48.9506C55.9597 48.7663 55.9951 48.5838 56.0641 48.4135C56.133 48.2433 56.2341 48.0885 56.3616 47.9582C56.4891 47.8278 56.6405 47.7244 56.8071 47.6538C56.9737 47.5832 57.1523 47.5469 57.3327 47.5468C57.6971 47.5469 58.0466 47.6948 58.3043 47.958C58.562 48.2213 58.7068 48.5783 58.7068 48.9506V60.1776C58.7065 60.5497 58.5616 60.9065 58.304 61.1695C58.0463 61.4325 57.6969 61.5802 57.3327 61.5801C56.9686 61.5801 56.6194 61.4323 56.362 61.1693C56.1045 60.9063 55.9599 60.5496 55.9598 60.1776ZM84.0383 83.1449C84.0383 85.2866 82.3308 87.0309 80.2309 87.0309C78.1322 87.0309 76.4247 85.2866 76.4247 83.1449C76.4247 80.9997 78.1322 79.2554 80.2309 79.2554C82.3308 79.2554 84.0383 80.9997 84.0383 83.1449ZM59.8228 83.1449C59.8228 85.2866 58.1153 87.0309 56.0166 87.0309C53.9192 87.0309 52.2104 85.2866 52.2104 83.1449C52.2104 80.9997 53.9189 79.2554 56.0166 79.2554C58.1153 79.2554 59.8228 80.9997 59.8228 83.1449ZM30.3297 92.9198C38.7374 90.0167 43.8514 84.8005 46.4051 76.5308C48.689 69.1363 48.5686 60.3062 48.3591 52.3632C46.6508 52.0647 44.9563 51.6887 43.2808 51.2363C42.9174 51.1392 42.5585 51.0365 42.1973 50.9335C42.0989 50.9566 41.9984 50.9685 41.8975 50.969C41.5294 50.969 41.1762 50.8118 40.9192 50.5445C37.0669 49.3277 33.4551 47.7431 30.3297 45.889C25.0781 49.0057 18.632 51.2599 12.3026 52.3634C12.0943 60.3064 11.9703 69.1365 14.2554 76.5311C16.8103 84.8005 21.9243 90.0167 30.3297 92.9198ZM95.635 40.986H40.256L42.8722 48.2112C45.2528 48.8996 47.4857 49.4009 49.9033 49.7709C50.5608 49.8726 51.0562 50.4414 51.0736 51.1202C51.2206 56.5504 51.3782 62.4441 50.8028 68.1405L80.9534 68.1428C83.7501 68.1428 86.1208 66.5948 87.2959 64.0015L96.854 42.938C96.9514 42.729 96.9951 42.498 96.9811 42.267C96.967 42.0359 96.8957 41.8123 96.7738 41.6171C96.652 41.4219 96.4835 41.2616 96.2843 41.1512C96.0851 41.0408 95.8616 40.9839 95.635 40.986ZM49.3651 28.5149C49.3651 28.3613 49.4914 28.2335 49.6406 28.2335H73.1777V38.1787H49.3651V28.5149ZM76.2003 17.0064H87.5563C87.7057 17.0064 87.8318 17.1342 87.8318 17.2879V38.1787H75.9248V17.2879C75.9248 17.1342 76.0509 17.0064 76.2003 17.0064ZM26.8465 30.6908V33.1008C26.8465 33.7169 25.8151 34.4335 24.485 34.4335H14.1755C12.8465 34.4335 11.8151 33.7169 11.8151 33.1008V31.6782C11.8151 31.0633 12.8465 30.3467 14.1755 30.3467H23.4466C23.5636 30.368 23.6414 30.4363 23.9374 30.4342L26.3243 30.4023C26.6114 30.4791 26.7956 30.6127 26.8465 30.6908ZM80.9534 70.9493C84.8475 70.9493 88.1512 68.7934 89.7892 65.1831L99.3474 44.1186C100.608 41.3428 98.6271 38.1787 95.635 38.1787H90.5786V17.2879C90.5786 15.5849 89.2231 14.2002 87.5563 14.2002H76.2003C74.5332 14.2002 73.1777 15.5849 73.1777 17.2879V25.4272H49.6406C47.9726 25.4272 46.6181 26.812 46.6181 28.5149V38.1787H39.2418L37.0041 32C36.0214 29.2837 33.5673 27.5394 30.7381 27.5394C30.7091 27.5394 30.6778 27.5394 30.649 27.5417L26.5695 27.5937C26.3427 27.5586 26.1137 27.5404 25.8842 27.5392H14.1755C11.3115 27.5392 9.06689 29.3581 9.06689 31.6782V33.1008C9.06689 35.4209 11.3115 37.2397 14.1755 37.2397H24.485C27.3499 37.2397 29.5933 35.4209 29.5933 33.1008L29.5772 30.3609L30.7383 30.3467C32.4294 30.3467 33.8395 31.3496 34.4276 32.9732L39.5498 47.1259C36.4441 45.9978 33.5571 44.6201 31.0451 43.0579C30.8297 42.9239 30.5824 42.8531 30.3302 42.8531C30.0781 42.8531 29.8308 42.9239 29.6154 43.0579C24.2143 46.4141 17.3774 48.7599 10.7582 49.7711C10.4392 49.8201 10.1472 49.982 9.93321 50.2287C9.71926 50.4753 9.59702 50.791 9.58789 51.1204C9.35877 59.5802 9.10062 69.1684 11.6357 77.3752C14.4833 86.5943 20.4611 92.5993 29.907 95.7319C30.1828 95.823 30.4797 95.823 30.7555 95.7319C39.56 92.811 45.3492 87.3937 48.4018 79.2057C49.0062 79.2863 50.049 79.2554 50.6857 79.2554C47.599 83.669 50.6924 89.8369 56.0164 89.8369C61.3537 89.8369 64.4275 83.6487 61.3459 79.2554H74.9012C71.8198 83.6483 74.8932 89.8369 80.2307 89.8369C85.5563 89.8369 88.6473 83.6682 85.5614 79.2554H90.8053C91.5658 79.2554 92.1794 78.6276 92.1794 77.8529C92.1794 77.0783 91.5658 76.4492 90.8053 76.4492H49.2979C49.798 74.6659 50.1741 72.8247 50.4555 70.948L80.9534 70.9493Z" fill="#8B5CF6"/>
</svg>
