<svg width="109" height="110" viewBox="0 0 109 110" fill="none" xmlns="http://www.w3.org/2000/svg">
<path d="M51.7193 9.66663L9.06689 31.2277V80.7571L57.6526 100.333H57.6721V100.324L99.7336 75.5569V26.0354L51.7193 9.66663Z" fill="#DDD6FE"/>
<path d="M99.7336 26.0354L51.7193 9.66663L9.06689 31.2277V80.7571L57.6526 100.333H57.6721V50.7884L57.6624 50.7845L99.7336 26.0354Z" fill="#C4B5FD"/>
<path d="M57.6721 50.7883V100.333H57.6526L9.06689 80.757V31.2316L14.7817 33.5324L57.6721 50.7883Z" fill="#8B5CF6"/>
<path d="M57.6721 50.7883V93.5283L25.7082 80.64C22.4816 79.3378 19.7178 77.1013 17.7717 74.2178C15.8255 71.3342 14.7857 67.935 14.7856 64.4565V33.5323L57.6721 50.7883Z" fill="#A78BFA"/>
<path d="M79.3029 19.0647L78.4447 19.5326L36.9391 42.443L36.8611 58.373L30.2881 55.9163L25.9971 54.2979V38.0559L69.2581 15.6525L79.3029 19.0647Z" fill="#5B21B6"/>
<path d="M78.493 19.5327L36.9875 42.4431L36.9094 58.3731L30.3364 55.9164V40.2788L73.6169 17.8754L78.493 19.5327Z" fill="#6D28D9"/>
</svg>
